<svg xmlns="http://www.w3.org/2000/svg" width="41" height="36" fill="none"><path fill="#1D4675" d="M36.386 18h-6.25v-5c0-2.734 2.188-5 5-5h.625c1.016 0 1.875-.781 1.875-1.875v-3.75c0-1.016-.86-1.875-1.875-1.875h-.625c-6.953 0-12.5 5.625-12.5 12.5v18.75c0 2.11 1.64 3.75 3.75 3.75h10a3.75 3.75 0 0 0 3.75-3.75v-10c0-2.031-1.719-3.75-3.75-3.75Zm-22.5 0h-6.25v-5c0-2.734 2.188-5 5-5h.625c1.016 0 1.875-.781 1.875-1.875v-3.75c0-1.016-.86-1.875-1.875-1.875h-.625C5.683.5.136 6.125.136 13v18.75c0 2.11 1.64 3.75 3.75 3.75h10a3.75 3.75 0 0 0 3.75-3.75v-10c0-2.031-1.718-3.75-3.75-3.75Z"/></svg>